<svg width="494" height="102" viewBox="0 0 494 102" fill="none" xmlns="http://www.w3.org/2000/svg">
<path d="M198.44 97V86.24H201.42V89.28L201 88.4C201.32 87.64 201.833 87.0667 202.54 86.68C203.247 86.28 204.107 86.08 205.12 86.08V88.96C204.987 88.9467 204.867 88.94 204.76 88.94C204.653 88.9267 204.54 88.92 204.42 88.92C203.567 88.92 202.873 89.1667 202.34 89.66C201.82 90.14 201.56 90.8933 201.56 91.92V97H198.44ZM211.837 97.16C210.61 97.16 209.53 96.92 208.597 96.44C207.677 95.96 206.964 95.3067 206.457 94.48C205.95 93.64 205.697 92.6867 205.697 91.62C205.697 90.54 205.944 89.5867 206.437 88.76C206.944 87.92 207.63 87.2667 208.497 86.8C209.364 86.32 210.344 86.08 211.437 86.08C212.49 86.08 213.437 86.3067 214.277 86.76C215.13 87.2 215.804 87.84 216.297 88.68C216.79 89.5067 217.037 90.5 217.037 91.66C217.037 91.78 217.03 91.92 217.017 92.08C217.004 92.2267 216.99 92.3667 216.977 92.5H208.237V90.68H215.337L214.137 91.22C214.137 90.66 214.024 90.1733 213.797 89.76C213.57 89.3467 213.257 89.0267 212.857 88.8C212.457 88.56 211.99 88.44 211.457 88.44C210.924 88.44 210.45 88.56 210.037 88.8C209.637 89.0267 209.324 89.3533 209.097 89.78C208.87 90.1933 208.757 90.6867 208.757 91.26V91.74C208.757 92.3267 208.884 92.8467 209.137 93.3C209.404 93.74 209.77 94.08 210.237 94.32C210.717 94.5467 211.277 94.66 211.917 94.66C212.49 94.66 212.99 94.5733 213.417 94.4C213.857 94.2267 214.257 93.9667 214.617 93.62L216.277 95.42C215.784 95.98 215.164 96.4133 214.417 96.72C213.67 97.0133 212.81 97.16 211.837 97.16ZM225.021 97V94.9L224.821 94.44V90.68C224.821 90.0133 224.615 89.4933 224.201 89.12C223.801 88.7467 223.181 88.56 222.341 88.56C221.768 88.56 221.201 88.6533 220.641 88.84C220.095 89.0133 219.628 89.2533 219.241 89.56L218.121 87.38C218.708 86.9667 219.415 86.6467 220.241 86.42C221.068 86.1933 221.908 86.08 222.761 86.08C224.401 86.08 225.675 86.4667 226.581 87.24C227.488 88.0133 227.941 89.22 227.941 90.86V97H225.021ZM221.741 97.16C220.901 97.16 220.181 97.02 219.581 96.74C218.981 96.4467 218.521 96.0533 218.201 95.56C217.881 95.0667 217.721 94.5133 217.721 93.9C217.721 93.26 217.875 92.7 218.181 92.22C218.501 91.74 219.001 91.3667 219.681 91.1C220.361 90.82 221.248 90.68 222.341 90.68H225.201V92.5H222.681C221.948 92.5 221.441 92.62 221.161 92.86C220.895 93.1 220.761 93.4 220.761 93.76C220.761 94.16 220.915 94.48 221.221 94.72C221.541 94.9467 221.975 95.06 222.521 95.06C223.041 95.06 223.508 94.94 223.921 94.7C224.335 94.4467 224.635 94.08 224.821 93.6L225.301 95.04C225.075 95.7333 224.661 96.26 224.061 96.62C223.461 96.98 222.688 97.16 221.741 97.16ZM235.063 97.16C234.05 97.16 233.136 96.9333 232.323 96.48C231.51 96.0133 230.863 95.3667 230.383 94.54C229.916 93.7133 229.683 92.74 229.683 91.62C229.683 90.4867 229.916 89.5067 230.383 88.68C230.863 87.8533 231.51 87.2133 232.323 86.76C233.136 86.3067 234.05 86.08 235.063 86.08C235.97 86.08 236.763 86.28 237.443 86.68C238.123 87.08 238.65 87.6867 239.023 88.5C239.396 89.3133 239.583 90.3533 239.583 91.62C239.583 92.8733 239.403 93.9133 239.043 94.74C238.683 95.5533 238.163 96.16 237.483 96.56C236.816 96.96 236.01 97.16 235.063 97.16ZM235.603 94.6C236.11 94.6 236.57 94.48 236.983 94.24C237.396 94 237.723 93.66 237.963 93.22C238.216 92.7667 238.343 92.2333 238.343 91.62C238.343 90.9933 238.216 90.46 237.963 90.02C237.723 89.58 237.396 89.24 236.983 89C236.57 88.76 236.11 88.64 235.603 88.64C235.083 88.64 234.616 88.76 234.203 89C233.79 89.24 233.456 89.58 233.203 90.02C232.963 90.46 232.843 90.9933 232.843 91.62C232.843 92.2333 232.963 92.7667 233.203 93.22C233.456 93.66 233.79 94 234.203 94.24C234.616 94.48 235.083 94.6 235.603 94.6ZM238.423 97V94.8L238.483 91.6L238.283 88.42V82.16H241.403V97H238.423ZM253.775 97.24C252.748 97.24 251.835 97.0733 251.035 96.74C250.235 96.4067 249.602 95.9533 249.135 95.38C248.668 94.8067 248.435 94.1467 248.435 93.4C248.435 92.7067 248.588 92.0867 248.895 91.54C249.202 90.98 249.688 90.46 250.355 89.98C251.022 89.4867 251.868 89.0067 252.895 88.54C253.642 88.1933 254.228 87.8867 254.655 87.62C255.082 87.3533 255.382 87.1 255.555 86.86C255.728 86.6067 255.815 86.3533 255.815 86.1C255.815 85.7533 255.695 85.4733 255.455 85.26C255.228 85.0467 254.888 84.94 254.435 84.94C253.955 84.94 253.582 85.06 253.315 85.3C253.048 85.54 252.915 85.8467 252.915 86.22C252.915 86.42 252.955 86.62 253.035 86.82C253.115 87.0067 253.268 87.2267 253.495 87.48C253.722 87.72 254.042 88.0333 254.455 88.42L261.835 95.26L260.135 97.24L251.995 89.68C251.528 89.2533 251.155 88.8533 250.875 88.48C250.595 88.1067 250.388 87.74 250.255 87.38C250.135 87.02 250.075 86.6467 250.075 86.26C250.075 85.58 250.255 84.98 250.615 84.46C250.975 83.94 251.482 83.54 252.135 83.26C252.788 82.9667 253.555 82.82 254.435 82.82C255.248 82.82 255.948 82.9533 256.535 83.22C257.135 83.4733 257.602 83.84 257.935 84.32C258.282 84.8 258.455 85.3733 258.455 86.04C258.455 86.6267 258.308 87.1667 258.015 87.66C257.722 88.14 257.262 88.5933 256.635 89.02C256.022 89.4467 255.215 89.88 254.215 90.32C253.535 90.6267 252.995 90.9267 252.595 91.22C252.208 91.5 251.928 91.7867 251.755 92.08C251.582 92.3733 251.495 92.7 251.495 93.06C251.495 93.3933 251.595 93.6933 251.795 93.96C252.008 94.2267 252.302 94.4333 252.675 94.58C253.048 94.7267 253.488 94.8 253.995 94.8C254.808 94.8 255.555 94.6133 256.235 94.24C256.915 93.8533 257.488 93.2867 257.955 92.54C258.435 91.78 258.775 90.86 258.975 89.78L261.475 90.56C261.195 91.92 260.695 93.1 259.975 94.1C259.255 95.1 258.368 95.8733 257.315 96.42C256.262 96.9667 255.082 97.24 253.775 97.24ZM271.03 97L267.15 86.24H270.09L273.31 95.5H271.91L275.27 86.24H277.91L281.17 95.5H279.77L283.09 86.24H285.85L281.95 97H278.93L276.07 89.06H276.99L274.03 97H271.03ZM286.9 97V86.24H289.88V89.28L289.46 88.4C289.78 87.64 290.293 87.0667 291 86.68C291.707 86.28 292.567 86.08 293.58 86.08V88.96C293.447 88.9467 293.327 88.94 293.22 88.94C293.113 88.9267 293 88.92 292.88 88.92C292.027 88.92 291.333 89.1667 290.8 89.66C290.28 90.14 290.02 90.8933 290.02 91.92V97H286.9ZM295.055 97V86.24H298.175V97H295.055ZM296.615 84.74C296.042 84.74 295.575 84.5733 295.215 84.24C294.855 83.9067 294.675 83.4933 294.675 83C294.675 82.5067 294.855 82.0933 295.215 81.76C295.575 81.4267 296.042 81.26 296.615 81.26C297.188 81.26 297.655 81.42 298.015 81.74C298.375 82.0467 298.555 82.4467 298.555 82.94C298.555 83.46 298.375 83.8933 298.015 84.24C297.668 84.5733 297.202 84.74 296.615 84.74ZM305.07 97.16C303.804 97.16 302.817 96.84 302.11 96.2C301.404 95.5467 301.05 94.58 301.05 93.3V83.86H304.17V93.26C304.17 93.7133 304.29 94.0667 304.53 94.32C304.77 94.56 305.097 94.68 305.51 94.68C306.004 94.68 306.424 94.5467 306.77 94.28L307.61 96.48C307.29 96.7067 306.904 96.88 306.45 97C306.01 97.1067 305.55 97.16 305.07 97.16ZM299.39 88.88V86.48H306.85V88.88H299.39ZM313.97 97.16C312.743 97.16 311.663 96.92 310.73 96.44C309.81 95.96 309.097 95.3067 308.59 94.48C308.083 93.64 307.83 92.6867 307.83 91.62C307.83 90.54 308.077 89.5867 308.57 88.76C309.077 87.92 309.763 87.2667 310.63 86.8C311.497 86.32 312.477 86.08 313.57 86.08C314.623 86.08 315.57 86.3067 316.41 86.76C317.263 87.2 317.937 87.84 318.43 88.68C318.923 89.5067 319.17 90.5 319.17 91.66C319.17 91.78 319.163 91.92 319.15 92.08C319.137 92.2267 319.123 92.3667 319.11 92.5H310.37V90.68H317.47L316.27 91.22C316.27 90.66 316.157 90.1733 315.93 89.76C315.703 89.3467 315.39 89.0267 314.99 88.8C314.59 88.56 314.123 88.44 313.59 88.44C313.057 88.44 312.583 88.56 312.17 88.8C311.77 89.0267 311.457 89.3533 311.23 89.78C311.003 90.1933 310.89 90.6867 310.89 91.26V91.74C310.89 92.3267 311.017 92.8467 311.27 93.3C311.537 93.74 311.903 94.08 312.37 94.32C312.85 94.5467 313.41 94.66 314.05 94.66C314.623 94.66 315.123 94.5733 315.55 94.4C315.99 94.2267 316.39 93.9667 316.75 93.62L318.41 95.42C317.917 95.98 317.297 96.4133 316.55 96.72C315.803 97.0133 314.943 97.16 313.97 97.16Z" fill="#6E757A"/>
<rect x="103.443" y="21.5244" width="22.4623" height="17.6056" rx="8.80281" transform="rotate(135 103.443 21.5244)" fill="#41BCFF"/>
<rect x="56.774" y="68.1934" width="22.4623" height="17.6056" rx="8.80281" transform="rotate(135 56.774 68.1934)" fill="#41BCFF"/>
<path fill-rule="evenodd" clip-rule="evenodd" d="M60.6819 39.8235C60.2267 40.2787 59.4888 40.2787 59.0336 39.8235C58.5785 39.3684 58.5785 38.6304 59.0336 38.1753L77.527 19.6819C81.0833 16.1256 81.0833 10.3598 77.527 6.80356C73.9708 3.2473 68.2049 3.24731 64.6487 6.80356L39.5239 31.9283C35.6187 35.8335 35.6187 42.1652 39.5239 46.0704L52.6402 59.1868C56.1902 62.7368 61.9459 62.7368 65.4959 59.1868L71.0412 53.6415C71.5285 53.1541 72.3187 53.1541 72.8061 53.6415C73.2935 54.1289 73.2935 54.9191 72.8061 55.4064L54.434 73.7785C50.8778 77.3348 50.8778 83.1006 54.434 86.6568C57.9903 90.2131 63.7561 90.2131 67.3124 86.6568L93.069 60.9002C96.6253 57.3439 96.6253 51.5781 93.069 48.0219L86.6613 41.6142C86.6439 41.5968 86.6158 41.5968 86.5984 41.6142C86.581 41.6315 86.5528 41.6315 86.5355 41.6142L79.1412 34.2199C75.5912 30.6699 69.8355 30.6699 66.2856 34.2199L60.6819 39.8235Z" fill="#FFC80B"/>
<path fill-rule="evenodd" clip-rule="evenodd" d="M111.242 33.307C107.728 29.7923 102.029 29.7922 98.5144 33.307L98.364 33.4574C94.8493 36.9721 94.8493 42.6706 98.364 46.1853L100.661 48.4821C104.176 51.9969 104.176 57.6953 100.661 61.2101L98.3641 63.5068C94.8494 67.0215 94.8494 72.72 98.3641 76.2347L98.5145 76.3851C102.029 79.8999 107.728 79.8999 111.242 76.3851L126.418 61.21C129.932 57.6953 129.932 51.9968 126.418 48.4821L119.903 41.9678C119.903 41.9677 119.903 41.9677 119.903 41.9678C119.903 41.9678 119.903 41.9678 119.903 41.9678L111.242 33.307Z" fill="#E54671"/>
<path fill-rule="evenodd" clip-rule="evenodd" d="M12.8783 25.8517L6.36395 32.366C2.84923 35.8807 2.84924 41.5792 6.36396 45.0939L21.5391 60.2691C25.0538 63.7838 30.7523 63.7838 34.267 60.2691L34.4174 60.1186C37.9321 56.6039 37.9321 50.9054 34.4174 47.3907L32.1206 45.094C28.6059 41.5792 28.6059 35.8807 32.1206 32.366L34.4174 30.0692C37.9321 26.5545 37.9322 20.856 34.4174 17.3413L34.267 17.1909C30.7523 13.6762 25.0538 13.6762 21.5391 17.1909L12.8783 25.8517Z" fill="#E54671"/>
<mask id="path-7-outside-1_853_7" maskUnits="userSpaceOnUse" x="136.995" y="22" width="354" height="51" fill="black">
<rect fill="white" x="136.995" y="22" width="354" height="51"/>
<path d="M162.747 71.768C159.291 71.768 156.07 71.2133 153.083 70.104C150.139 68.952 147.579 67.3307 145.403 65.24C143.227 63.1493 141.52 60.696 140.283 57.88C139.088 55.064 138.491 51.9707 138.491 48.6C138.491 45.2293 139.088 42.136 140.283 39.32C141.52 36.504 143.227 34.0507 145.403 31.96C147.622 29.8693 150.203 28.2693 153.147 27.16C156.091 26.008 159.312 25.432 162.811 25.432C166.694 25.432 170.192 26.1147 173.307 27.48C176.464 28.8027 179.11 30.7653 181.243 33.368L174.587 39.512C173.051 37.7627 171.344 36.4613 169.467 35.608C167.59 34.712 165.542 34.264 163.323 34.264C161.232 34.264 159.312 34.6053 157.563 35.288C155.814 35.9707 154.299 36.952 153.019 38.232C151.739 39.512 150.736 41.0267 150.011 42.776C149.328 44.5253 148.987 46.4667 148.987 48.6C148.987 50.7333 149.328 52.6747 150.011 54.424C150.736 56.1733 151.739 57.688 153.019 58.968C154.299 60.248 155.814 61.2293 157.563 61.912C159.312 62.5947 161.232 62.936 163.323 62.936C165.542 62.936 167.59 62.5093 169.467 61.656C171.344 60.76 173.051 59.416 174.587 57.624L181.243 63.768C179.11 66.3707 176.464 68.3547 173.307 69.72C170.192 71.0853 166.672 71.768 162.747 71.768ZM202.097 71.512C198.428 71.512 195.164 70.744 192.305 69.208C189.489 67.672 187.249 65.5813 185.585 62.936C183.964 60.248 183.153 57.1973 183.153 53.784C183.153 50.328 183.964 47.2773 185.585 44.632C187.249 41.944 189.489 39.8533 192.305 38.36C195.164 36.824 198.428 36.056 202.097 36.056C205.724 36.056 208.966 36.824 211.825 38.36C214.684 39.8533 216.924 41.9227 218.545 44.568C220.166 47.2133 220.977 50.2853 220.977 53.784C220.977 57.1973 220.166 60.248 218.545 62.936C216.924 65.5813 214.684 67.672 211.825 69.208C208.966 70.744 205.724 71.512 202.097 71.512ZM202.097 63.32C203.761 63.32 205.254 62.936 206.577 62.168C207.9 61.4 208.945 60.312 209.713 58.904C210.481 57.4533 210.865 55.7467 210.865 53.784C210.865 51.7787 210.481 50.072 209.713 48.664C208.945 47.256 207.9 46.168 206.577 45.4C205.254 44.632 203.761 44.248 202.097 44.248C200.433 44.248 198.94 44.632 197.617 45.4C196.294 46.168 195.228 47.256 194.417 48.664C193.649 50.072 193.265 51.7787 193.265 53.784C193.265 55.7467 193.649 57.4533 194.417 58.904C195.228 60.312 196.294 61.4 197.617 62.168C198.94 62.936 200.433 63.32 202.097 63.32ZM241.155 71.512C237.912 71.512 234.989 70.7867 232.387 69.336C229.784 67.8427 227.715 65.7733 226.179 63.128C224.685 60.4827 223.939 57.368 223.939 53.784C223.939 50.1573 224.685 47.0213 226.179 44.376C227.715 41.7307 229.784 39.6827 232.387 38.232C234.989 36.7813 237.912 36.056 241.155 36.056C244.056 36.056 246.595 36.696 248.771 37.976C250.947 39.256 252.632 41.1973 253.827 43.8C255.021 46.4027 255.619 49.7307 255.619 53.784C255.619 57.7947 255.043 61.1227 253.891 63.768C252.739 66.3707 251.075 68.312 248.899 69.592C246.765 70.872 244.184 71.512 241.155 71.512ZM242.883 63.32C244.504 63.32 245.976 62.936 247.299 62.168C248.621 61.4 249.667 60.312 250.435 58.904C251.245 57.4533 251.651 55.7467 251.651 53.784C251.651 51.7787 251.245 50.072 250.435 48.664C249.667 47.256 248.621 46.168 247.299 45.4C245.976 44.632 244.504 44.248 242.883 44.248C241.219 44.248 239.725 44.632 238.403 45.4C237.08 46.168 236.013 47.256 235.203 48.664C234.435 50.072 234.051 51.7787 234.051 53.784C234.051 55.7467 234.435 57.4533 235.203 58.904C236.013 60.312 237.08 61.4 238.403 62.168C239.725 62.936 241.219 63.32 242.883 63.32ZM251.907 71V63.96L252.099 53.72L251.459 43.544V23.512H261.443V71H251.907ZM284.571 71.512C280.646 71.512 277.19 70.744 274.203 69.208C271.259 67.672 268.976 65.5813 267.355 62.936C265.734 60.248 264.923 57.1973 264.923 53.784C264.923 50.328 265.712 47.2773 267.291 44.632C268.912 41.944 271.11 39.8533 273.883 38.36C276.656 36.824 279.792 36.056 283.291 36.056C286.662 36.056 289.691 36.7813 292.379 38.232C295.11 39.64 297.264 41.688 298.843 44.376C300.422 47.0213 301.211 50.2 301.211 53.912C301.211 54.296 301.19 54.744 301.147 55.256C301.104 55.7253 301.062 56.1733 301.019 56.6H273.051V50.776H295.771L291.931 52.504C291.931 50.712 291.568 49.1547 290.843 47.832C290.118 46.5093 289.115 45.4853 287.835 44.76C286.555 43.992 285.062 43.608 283.355 43.608C281.648 43.608 280.134 43.992 278.811 44.76C277.531 45.4853 276.528 46.5307 275.803 47.896C275.078 49.2187 274.715 50.7973 274.715 52.632V54.168C274.715 56.0453 275.12 57.7093 275.931 59.16C276.784 60.568 277.958 61.656 279.451 62.424C280.987 63.1493 282.779 63.512 284.827 63.512C286.662 63.512 288.262 63.2347 289.627 62.68C291.035 62.1253 292.315 61.2933 293.467 60.184L298.779 65.944C297.2 67.736 295.216 69.1227 292.827 70.104C290.438 71.0427 287.686 71.512 284.571 71.512ZM329.362 71.768C325.906 71.768 322.685 71.2133 319.698 70.104C316.754 68.952 314.194 67.3307 312.018 65.24C309.842 63.1493 308.135 60.696 306.898 57.88C305.703 55.064 305.106 51.9707 305.106 48.6C305.106 45.2293 305.703 42.136 306.898 39.32C308.135 36.504 309.842 34.0507 312.018 31.96C314.237 29.8693 316.818 28.2693 319.762 27.16C322.706 26.008 325.927 25.432 329.426 25.432C333.309 25.432 336.807 26.1147 339.922 27.48C343.079 28.8027 345.725 30.7653 347.858 33.368L341.202 39.512C339.666 37.7627 337.959 36.4613 336.082 35.608C334.205 34.712 332.157 34.264 329.938 34.264C327.847 34.264 325.927 34.6053 324.178 35.288C322.429 35.9707 320.914 36.952 319.634 38.232C318.354 39.512 317.351 41.0267 316.626 42.776C315.943 44.5253 315.602 46.4667 315.602 48.6C315.602 50.7333 315.943 52.6747 316.626 54.424C317.351 56.1733 318.354 57.688 319.634 58.968C320.914 60.248 322.429 61.2293 324.178 61.912C325.927 62.5947 327.847 62.936 329.938 62.936C332.157 62.936 334.205 62.5093 336.082 61.656C337.959 60.76 339.666 59.416 341.202 57.624L347.858 63.768C345.725 66.3707 343.079 68.3547 339.922 69.72C336.807 71.0853 333.287 71.768 329.362 71.768ZM352.876 71V36.568H362.412V46.296L361.068 43.48C362.092 41.048 363.734 39.2133 365.996 37.976C368.257 36.696 371.009 36.056 374.252 36.056V45.272C373.825 45.2293 373.441 45.208 373.1 45.208C372.758 45.1653 372.396 45.144 372.012 45.144C369.281 45.144 367.062 45.9333 365.356 47.512C363.692 49.048 362.86 51.4587 362.86 54.744V71H352.876ZM393.686 71.512C390.827 71.512 388.267 70.9573 386.006 69.848C383.787 68.7387 382.059 67.0533 380.822 64.792C379.585 62.488 378.966 59.5653 378.966 56.024V36.568H388.95V54.552C388.95 57.4107 389.547 59.5227 390.742 60.888C391.979 62.2107 393.707 62.872 395.926 62.872C397.462 62.872 398.827 62.552 400.022 61.912C401.217 61.2293 402.155 60.2053 402.838 58.84C403.521 57.432 403.862 55.6827 403.862 53.592V36.568H413.846V71H404.374V61.528L406.102 64.28C404.95 66.6693 403.243 68.4827 400.982 69.72C398.763 70.9147 396.331 71.512 393.686 71.512ZM433.4 71.512C430.456 71.512 427.618 71.1707 424.888 70.488C422.2 69.7627 420.066 68.8667 418.488 67.8L421.816 60.632C423.394 61.6133 425.25 62.424 427.384 63.064C429.56 63.6613 431.693 63.96 433.784 63.96C436.088 63.96 437.709 63.6827 438.648 63.128C439.629 62.5733 440.12 61.8053 440.12 60.824C440.12 60.0133 439.736 59.416 438.968 59.032C438.242 58.6053 437.261 58.2853 436.024 58.072C434.786 57.8587 433.421 57.6453 431.928 57.432C430.477 57.2187 429.005 56.9413 427.512 56.6C426.018 56.216 424.653 55.6613 423.416 54.936C422.178 54.2107 421.176 53.2293 420.408 51.992C419.682 50.7547 419.32 49.1547 419.32 47.192C419.32 45.016 419.938 43.096 421.176 41.432C422.456 39.768 424.29 38.4667 426.68 37.528C429.069 36.5467 431.928 36.056 435.256 36.056C437.602 36.056 439.992 36.312 442.424 36.824C444.856 37.336 446.882 38.0827 448.504 39.064L445.176 46.168C443.512 45.1867 441.826 44.5253 440.12 44.184C438.456 43.8 436.834 43.608 435.256 43.608C433.037 43.608 431.416 43.9067 430.392 44.504C429.368 45.1013 428.856 45.8693 428.856 46.808C428.856 47.6613 429.218 48.3013 429.944 48.728C430.712 49.1547 431.714 49.496 432.952 49.752C434.189 50.008 435.533 50.2427 436.984 50.456C438.477 50.6267 439.97 50.904 441.464 51.288C442.957 51.672 444.301 52.2267 445.496 52.952C446.733 53.6347 447.736 54.5947 448.504 55.832C449.272 57.0267 449.656 58.6053 449.656 60.568C449.656 62.7013 449.016 64.6 447.736 66.264C446.456 67.8853 444.6 69.1653 442.168 70.104C439.778 71.0427 436.856 71.512 433.4 71.512ZM474.824 36.056C477.554 36.056 479.986 36.6107 482.12 37.72C484.296 38.7867 486.002 40.4507 487.24 42.712C488.477 44.9307 489.096 47.7893 489.096 51.288V71H479.112V52.824C479.112 50.0507 478.493 48.0027 477.256 46.68C476.061 45.3573 474.354 44.696 472.136 44.696C470.557 44.696 469.128 45.0373 467.848 45.72C466.61 46.36 465.629 47.3627 464.904 48.728C464.221 50.0933 463.88 51.8427 463.88 53.976V71H453.896V23.512H463.88V46.104L461.64 43.224C462.877 40.92 464.648 39.1493 466.952 37.912C469.256 36.6747 471.88 36.056 474.824 36.056Z"/>
</mask>
<path d="M162.747 71.768C159.291 71.768 156.07 71.2133 153.083 70.104C150.139 68.952 147.579 67.3307 145.403 65.24C143.227 63.1493 141.52 60.696 140.283 57.88C139.088 55.064 138.491 51.9707 138.491 48.6C138.491 45.2293 139.088 42.136 140.283 39.32C141.52 36.504 143.227 34.0507 145.403 31.96C147.622 29.8693 150.203 28.2693 153.147 27.16C156.091 26.008 159.312 25.432 162.811 25.432C166.694 25.432 170.192 26.1147 173.307 27.48C176.464 28.8027 179.11 30.7653 181.243 33.368L174.587 39.512C173.051 37.7627 171.344 36.4613 169.467 35.608C167.59 34.712 165.542 34.264 163.323 34.264C161.232 34.264 159.312 34.6053 157.563 35.288C155.814 35.9707 154.299 36.952 153.019 38.232C151.739 39.512 150.736 41.0267 150.011 42.776C149.328 44.5253 148.987 46.4667 148.987 48.6C148.987 50.7333 149.328 52.6747 150.011 54.424C150.736 56.1733 151.739 57.688 153.019 58.968C154.299 60.248 155.814 61.2293 157.563 61.912C159.312 62.5947 161.232 62.936 163.323 62.936C165.542 62.936 167.59 62.5093 169.467 61.656C171.344 60.76 173.051 59.416 174.587 57.624L181.243 63.768C179.11 66.3707 176.464 68.3547 173.307 69.72C170.192 71.0853 166.672 71.768 162.747 71.768ZM202.097 71.512C198.428 71.512 195.164 70.744 192.305 69.208C189.489 67.672 187.249 65.5813 185.585 62.936C183.964 60.248 183.153 57.1973 183.153 53.784C183.153 50.328 183.964 47.2773 185.585 44.632C187.249 41.944 189.489 39.8533 192.305 38.36C195.164 36.824 198.428 36.056 202.097 36.056C205.724 36.056 208.966 36.824 211.825 38.36C214.684 39.8533 216.924 41.9227 218.545 44.568C220.166 47.2133 220.977 50.2853 220.977 53.784C220.977 57.1973 220.166 60.248 218.545 62.936C216.924 65.5813 214.684 67.672 211.825 69.208C208.966 70.744 205.724 71.512 202.097 71.512ZM202.097 63.32C203.761 63.32 205.254 62.936 206.577 62.168C207.9 61.4 208.945 60.312 209.713 58.904C210.481 57.4533 210.865 55.7467 210.865 53.784C210.865 51.7787 210.481 50.072 209.713 48.664C208.945 47.256 207.9 46.168 206.577 45.4C205.254 44.632 203.761 44.248 202.097 44.248C200.433 44.248 198.94 44.632 197.617 45.4C196.294 46.168 195.228 47.256 194.417 48.664C193.649 50.072 193.265 51.7787 193.265 53.784C193.265 55.7467 193.649 57.4533 194.417 58.904C195.228 60.312 196.294 61.4 197.617 62.168C198.94 62.936 200.433 63.32 202.097 63.32ZM241.155 71.512C237.912 71.512 234.989 70.7867 232.387 69.336C229.784 67.8427 227.715 65.7733 226.179 63.128C224.685 60.4827 223.939 57.368 223.939 53.784C223.939 50.1573 224.685 47.0213 226.179 44.376C227.715 41.7307 229.784 39.6827 232.387 38.232C234.989 36.7813 237.912 36.056 241.155 36.056C244.056 36.056 246.595 36.696 248.771 37.976C250.947 39.256 252.632 41.1973 253.827 43.8C255.021 46.4027 255.619 49.7307 255.619 53.784C255.619 57.7947 255.043 61.1227 253.891 63.768C252.739 66.3707 251.075 68.312 248.899 69.592C246.765 70.872 244.184 71.512 241.155 71.512ZM242.883 63.32C244.504 63.32 245.976 62.936 247.299 62.168C248.621 61.4 249.667 60.312 250.435 58.904C251.245 57.4533 251.651 55.7467 251.651 53.784C251.651 51.7787 251.245 50.072 250.435 48.664C249.667 47.256 248.621 46.168 247.299 45.4C245.976 44.632 244.504 44.248 242.883 44.248C241.219 44.248 239.725 44.632 238.403 45.4C237.08 46.168 236.013 47.256 235.203 48.664C234.435 50.072 234.051 51.7787 234.051 53.784C234.051 55.7467 234.435 57.4533 235.203 58.904C236.013 60.312 237.08 61.4 238.403 62.168C239.725 62.936 241.219 63.32 242.883 63.32ZM251.907 71V63.96L252.099 53.72L251.459 43.544V23.512H261.443V71H251.907ZM284.571 71.512C280.646 71.512 277.19 70.744 274.203 69.208C271.259 67.672 268.976 65.5813 267.355 62.936C265.734 60.248 264.923 57.1973 264.923 53.784C264.923 50.328 265.712 47.2773 267.291 44.632C268.912 41.944 271.11 39.8533 273.883 38.36C276.656 36.824 279.792 36.056 283.291 36.056C286.662 36.056 289.691 36.7813 292.379 38.232C295.11 39.64 297.264 41.688 298.843 44.376C300.422 47.0213 301.211 50.2 301.211 53.912C301.211 54.296 301.19 54.744 301.147 55.256C301.104 55.7253 301.062 56.1733 301.019 56.6H273.051V50.776H295.771L291.931 52.504C291.931 50.712 291.568 49.1547 290.843 47.832C290.118 46.5093 289.115 45.4853 287.835 44.76C286.555 43.992 285.062 43.608 283.355 43.608C281.648 43.608 280.134 43.992 278.811 44.76C277.531 45.4853 276.528 46.5307 275.803 47.896C275.078 49.2187 274.715 50.7973 274.715 52.632V54.168C274.715 56.0453 275.12 57.7093 275.931 59.16C276.784 60.568 277.958 61.656 279.451 62.424C280.987 63.1493 282.779 63.512 284.827 63.512C286.662 63.512 288.262 63.2347 289.627 62.68C291.035 62.1253 292.315 61.2933 293.467 60.184L298.779 65.944C297.2 67.736 295.216 69.1227 292.827 70.104C290.438 71.0427 287.686 71.512 284.571 71.512ZM329.362 71.768C325.906 71.768 322.685 71.2133 319.698 70.104C316.754 68.952 314.194 67.3307 312.018 65.24C309.842 63.1493 308.135 60.696 306.898 57.88C305.703 55.064 305.106 51.9707 305.106 48.6C305.106 45.2293 305.703 42.136 306.898 39.32C308.135 36.504 309.842 34.0507 312.018 31.96C314.237 29.8693 316.818 28.2693 319.762 27.16C322.706 26.008 325.927 25.432 329.426 25.432C333.309 25.432 336.807 26.1147 339.922 27.48C343.079 28.8027 345.725 30.7653 347.858 33.368L341.202 39.512C339.666 37.7627 337.959 36.4613 336.082 35.608C334.205 34.712 332.157 34.264 329.938 34.264C327.847 34.264 325.927 34.6053 324.178 35.288C322.429 35.9707 320.914 36.952 319.634 38.232C318.354 39.512 317.351 41.0267 316.626 42.776C315.943 44.5253 315.602 46.4667 315.602 48.6C315.602 50.7333 315.943 52.6747 316.626 54.424C317.351 56.1733 318.354 57.688 319.634 58.968C320.914 60.248 322.429 61.2293 324.178 61.912C325.927 62.5947 327.847 62.936 329.938 62.936C332.157 62.936 334.205 62.5093 336.082 61.656C337.959 60.76 339.666 59.416 341.202 57.624L347.858 63.768C345.725 66.3707 343.079 68.3547 339.922 69.72C336.807 71.0853 333.287 71.768 329.362 71.768ZM352.876 71V36.568H362.412V46.296L361.068 43.48C362.092 41.048 363.734 39.2133 365.996 37.976C368.257 36.696 371.009 36.056 374.252 36.056V45.272C373.825 45.2293 373.441 45.208 373.1 45.208C372.758 45.1653 372.396 45.144 372.012 45.144C369.281 45.144 367.062 45.9333 365.356 47.512C363.692 49.048 362.86 51.4587 362.86 54.744V71H352.876ZM393.686 71.512C390.827 71.512 388.267 70.9573 386.006 69.848C383.787 68.7387 382.059 67.0533 380.822 64.792C379.585 62.488 378.966 59.5653 378.966 56.024V36.568H388.95V54.552C388.95 57.4107 389.547 59.5227 390.742 60.888C391.979 62.2107 393.707 62.872 395.926 62.872C397.462 62.872 398.827 62.552 400.022 61.912C401.217 61.2293 402.155 60.2053 402.838 58.84C403.521 57.432 403.862 55.6827 403.862 53.592V36.568H413.846V71H404.374V61.528L406.102 64.28C404.95 66.6693 403.243 68.4827 400.982 69.72C398.763 70.9147 396.331 71.512 393.686 71.512ZM433.4 71.512C430.456 71.512 427.618 71.1707 424.888 70.488C422.2 69.7627 420.066 68.8667 418.488 67.8L421.816 60.632C423.394 61.6133 425.25 62.424 427.384 63.064C429.56 63.6613 431.693 63.96 433.784 63.96C436.088 63.96 437.709 63.6827 438.648 63.128C439.629 62.5733 440.12 61.8053 440.12 60.824C440.12 60.0133 439.736 59.416 438.968 59.032C438.242 58.6053 437.261 58.2853 436.024 58.072C434.786 57.8587 433.421 57.6453 431.928 57.432C430.477 57.2187 429.005 56.9413 427.512 56.6C426.018 56.216 424.653 55.6613 423.416 54.936C422.178 54.2107 421.176 53.2293 420.408 51.992C419.682 50.7547 419.32 49.1547 419.32 47.192C419.32 45.016 419.938 43.096 421.176 41.432C422.456 39.768 424.29 38.4667 426.68 37.528C429.069 36.5467 431.928 36.056 435.256 36.056C437.602 36.056 439.992 36.312 442.424 36.824C444.856 37.336 446.882 38.0827 448.504 39.064L445.176 46.168C443.512 45.1867 441.826 44.5253 440.12 44.184C438.456 43.8 436.834 43.608 435.256 43.608C433.037 43.608 431.416 43.9067 430.392 44.504C429.368 45.1013 428.856 45.8693 428.856 46.808C428.856 47.6613 429.218 48.3013 429.944 48.728C430.712 49.1547 431.714 49.496 432.952 49.752C434.189 50.008 435.533 50.2427 436.984 50.456C438.477 50.6267 439.97 50.904 441.464 51.288C442.957 51.672 444.301 52.2267 445.496 52.952C446.733 53.6347 447.736 54.5947 448.504 55.832C449.272 57.0267 449.656 58.6053 449.656 60.568C449.656 62.7013 449.016 64.6 447.736 66.264C446.456 67.8853 444.6 69.1653 442.168 70.104C439.778 71.0427 436.856 71.512 433.4 71.512ZM474.824 36.056C477.554 36.056 479.986 36.6107 482.12 37.72C484.296 38.7867 486.002 40.4507 487.24 42.712C488.477 44.9307 489.096 47.7893 489.096 51.288V71H479.112V52.824C479.112 50.0507 478.493 48.0027 477.256 46.68C476.061 45.3573 474.354 44.696 472.136 44.696C470.557 44.696 469.128 45.0373 467.848 45.72C466.61 46.36 465.629 47.3627 464.904 48.728C464.221 50.0933 463.88 51.8427 463.88 53.976V71H453.896V23.512H463.88V46.104L461.64 43.224C462.877 40.92 464.648 39.1493 466.952 37.912C469.256 36.6747 471.88 36.056 474.824 36.056Z" fill="#2A3034"/>
<path d="M153.083 70.104L152.719 71.0352L152.727 71.0384L152.735 71.0414L153.083 70.104ZM145.403 65.24L144.71 65.9611L145.403 65.24ZM140.283 57.88L139.362 58.2706L139.368 58.2823L140.283 57.88ZM140.283 39.32L139.367 38.9177L139.363 38.9294L140.283 39.32ZM145.403 31.96L144.717 31.2322L144.71 31.2389L145.403 31.96ZM153.147 27.16L153.5 28.0958L153.511 28.0912L153.147 27.16ZM173.307 27.48L172.906 28.3959L172.913 28.3992L172.921 28.4023L173.307 27.48ZM181.243 33.368L181.921 34.1028L182.614 33.4633L182.016 32.7341L181.243 33.368ZM174.587 39.512L173.836 40.1718L174.512 40.9422L175.265 40.2468L174.587 39.512ZM169.467 35.608L169.036 36.5105L169.045 36.5145L169.053 36.5184L169.467 35.608ZM153.019 38.232L153.726 38.9391V38.9391L153.019 38.232ZM150.011 42.776L149.087 42.393L149.083 42.4027L149.08 42.4125L150.011 42.776ZM150.011 54.424L149.08 54.7875L149.083 54.7973L149.087 54.807L150.011 54.424ZM153.019 58.968L152.312 59.6751L153.019 58.968ZM169.467 61.656L169.881 62.5664L169.889 62.5625L169.898 62.5585L169.467 61.656ZM174.587 57.624L175.265 56.8892L174.503 56.1855L173.828 56.9732L174.587 57.624ZM181.243 63.768L182.016 64.4019L182.614 63.6727L181.921 63.0332L181.243 63.768ZM173.307 69.72L172.91 68.8021L172.906 68.8041L173.307 69.72ZM162.747 70.768C159.4 70.768 156.297 70.2311 153.431 69.1666L152.735 71.0414C155.842 72.1955 159.182 72.768 162.747 72.768V70.768ZM153.447 69.1728C150.62 68.0663 148.173 66.5143 146.096 64.5189L144.71 65.9611C146.985 68.147 149.658 69.8377 152.719 71.0352L153.447 69.1728ZM146.096 64.5189C144.016 62.5207 142.384 60.1763 141.199 57.4777L139.368 58.2823C140.657 61.2157 142.438 63.778 144.71 65.9611L146.096 64.5189ZM141.204 57.4894C140.067 54.809 139.491 51.8502 139.491 48.6H137.491C137.491 52.0911 138.11 55.319 139.363 58.2705L141.204 57.4894ZM139.491 48.6C139.491 45.3498 140.067 42.391 141.204 39.7105L139.363 38.9294C138.11 41.881 137.491 45.1089 137.491 48.6H139.491ZM141.199 39.7223C142.384 37.0237 144.016 34.6793 146.096 32.6811L144.71 31.2389C142.438 33.422 140.657 35.9843 139.368 38.9177L141.199 39.7223ZM146.089 32.6878C148.208 30.6907 150.675 29.16 153.5 28.0958L152.794 26.2242C149.731 27.3787 147.035 29.048 144.717 31.2322L146.089 32.6878ZM153.511 28.0912C156.328 26.9893 159.424 26.432 162.811 26.432V24.432C159.201 24.432 155.855 25.0267 152.783 26.2288L153.511 28.0912ZM162.811 26.432C166.575 26.432 169.934 27.0934 172.906 28.3959L173.709 26.5641C170.451 25.136 166.812 24.432 162.811 24.432V26.432ZM172.921 28.4023C175.93 29.663 178.442 31.5278 180.47 34.0019L182.016 32.7341C179.778 30.0029 176.999 27.9423 173.693 26.5577L172.921 28.4023ZM180.565 32.6332L173.909 38.7772L175.265 40.2468L181.921 34.1028L180.565 32.6332ZM175.339 38.8522C173.721 37.0101 171.903 35.6167 169.881 34.6976L169.053 36.5184C170.786 37.3059 172.381 38.5152 173.836 40.1718L175.339 38.8522ZM169.898 34.7055C167.877 33.7411 165.681 33.264 163.323 33.264V35.264C165.403 35.264 167.302 35.6829 169.036 36.5105L169.898 34.7055ZM163.323 33.264C161.122 33.264 159.077 33.6237 157.2 34.3564L157.927 36.2196C159.548 35.587 161.343 35.264 163.323 35.264V33.264ZM157.2 34.3564C155.326 35.0874 153.693 36.1434 152.312 37.5249L153.726 38.9391C154.905 37.7605 156.301 36.8539 157.927 36.2196L157.2 34.3564ZM152.312 37.5249C150.935 38.9019 149.861 40.5281 149.087 42.393L150.935 43.159C151.612 41.5252 152.543 40.1221 153.726 38.9391L152.312 37.5249ZM149.08 42.4125C148.346 44.2923 147.987 46.3591 147.987 48.6H149.987C149.987 46.5743 150.311 44.7583 150.943 43.1395L149.08 42.4125ZM147.987 48.6C147.987 50.8409 148.346 52.9077 149.08 54.7875L150.943 54.0605C150.311 52.4417 149.987 50.6257 149.987 48.6H147.987ZM149.087 54.807C149.861 56.6719 150.935 58.2981 152.312 59.6751L153.726 58.2609C152.543 57.0779 151.612 55.6748 150.935 54.041L149.087 54.807ZM152.312 59.6751C153.693 61.0565 155.326 62.1126 157.2 62.8436L157.927 60.9804C156.301 60.3461 154.905 59.4395 153.726 58.2609L152.312 59.6751ZM157.2 62.8436C159.077 63.5763 161.122 63.936 163.323 63.936V61.936C161.343 61.936 159.548 61.613 157.927 60.9804L157.2 62.8436ZM163.323 63.936C165.674 63.936 167.864 63.4832 169.881 62.5664L169.053 60.7456C167.316 61.5355 165.41 61.936 163.323 61.936V63.936ZM169.898 62.5585C171.917 61.5948 173.732 60.1584 175.346 58.2748L173.828 56.9732C172.37 58.6736 170.772 59.9252 169.036 60.7535L169.898 62.5585ZM173.909 58.3588L180.565 64.5028L181.921 63.0332L175.265 56.8892L173.909 58.3588ZM180.47 63.1341C178.44 65.6106 175.925 67.4986 172.91 68.8021L173.704 70.6379C177.004 69.2107 179.78 67.1307 182.016 64.4019L180.47 63.1341ZM172.906 68.8041C169.936 70.1061 166.555 70.768 162.747 70.768V72.768C166.789 72.768 170.449 72.0646 173.709 70.6359L172.906 68.8041ZM192.305 69.208L191.826 70.0859L191.832 70.0889L192.305 69.208ZM185.585 62.936L184.729 63.4525L184.734 63.4605L184.739 63.4685L185.585 62.936ZM185.585 44.632L184.735 44.1056L184.732 44.1094L185.585 44.632ZM192.305 38.36L192.774 39.2435L192.778 39.2409L192.305 38.36ZM211.825 38.36L211.352 39.2409L211.362 39.2463L211.825 38.36ZM218.545 62.936L219.398 63.4586L219.401 63.4525L218.545 62.936ZM211.825 69.208L211.352 68.3271L211.825 69.208ZM206.577 62.168L207.079 63.0328L206.577 62.168ZM209.713 58.904L210.591 59.3829L210.597 59.3719L209.713 58.904ZM209.713 48.664L208.835 49.1429L209.713 48.664ZM206.577 45.4L206.075 46.2648L206.577 45.4ZM197.617 45.4L198.119 46.2648L197.617 45.4ZM194.417 48.664L193.55 48.165L193.545 48.175L193.539 48.1851L194.417 48.664ZM194.417 58.904L193.533 59.3719L193.542 59.3876L193.55 59.403L194.417 58.904ZM197.617 62.168L198.119 61.3032L197.617 62.168ZM202.097 70.512C198.571 70.512 195.473 69.7752 192.778 68.3271L191.832 70.0889C194.854 71.7128 198.284 72.512 202.097 72.512V70.512ZM192.784 68.3301C190.114 66.8737 188.002 64.9003 186.432 62.4035L184.739 63.4685C186.496 66.2624 188.864 68.4703 191.826 70.0859L192.784 68.3301ZM186.441 62.4195C184.922 59.9009 184.153 57.0317 184.153 53.784H182.153C182.153 57.3629 183.005 60.5951 184.729 63.4525L186.441 62.4195ZM184.153 53.784C184.153 50.4908 184.923 47.6252 186.438 45.1546L184.732 44.1094C183.004 46.9295 182.153 50.1652 182.153 53.784H184.153ZM186.435 45.1584C188.005 42.6224 190.113 40.6544 192.774 39.2435L191.837 37.4765C188.865 39.0522 186.493 41.2656 184.735 44.1056L186.435 45.1584ZM192.778 39.2409C195.473 37.7928 198.571 37.056 202.097 37.056V35.056C198.284 35.056 194.854 35.8552 191.832 37.4791L192.778 39.2409ZM202.097 37.056C205.578 37.056 208.655 37.7919 211.352 39.2409L212.298 37.4791C209.278 35.8561 205.869 35.056 202.097 35.056V37.056ZM211.362 39.2463C214.067 40.6594 216.17 42.6058 217.692 45.0906L219.398 44.0454C217.678 41.2396 215.301 39.0473 212.288 37.4736L211.362 39.2463ZM217.692 45.0906C219.206 47.5592 219.977 50.4456 219.977 53.784H221.977C221.977 50.125 221.127 46.8674 219.398 44.0454L217.692 45.0906ZM219.977 53.784C219.977 57.0317 219.208 59.9009 217.689 62.4195L219.401 63.4525C221.125 60.5951 221.977 57.3629 221.977 53.784H219.977ZM217.692 62.4134C216.168 64.9008 214.062 66.8709 211.352 68.3271L212.298 70.0889C215.306 68.4731 217.68 66.2619 219.398 63.4586L217.692 62.4134ZM211.352 68.3271C208.655 69.7761 205.578 70.512 202.097 70.512V72.512C205.869 72.512 209.278 71.7119 212.298 70.0889L211.352 68.3271ZM202.097 64.32C203.921 64.32 205.591 63.8971 207.079 63.0328L206.075 61.3032C204.918 61.9749 203.601 62.32 202.097 62.32V64.32ZM207.079 63.0328C208.568 62.1684 209.74 60.9433 210.591 59.3829L208.835 58.4251C208.15 59.6807 207.232 60.6316 206.075 61.3032L207.079 63.0328ZM210.597 59.3719C211.455 57.7514 211.865 55.878 211.865 53.784H209.865C209.865 55.6153 209.507 57.1553 208.829 58.4361L210.597 59.3719ZM211.865 53.784C211.865 51.6525 211.457 49.7724 210.591 48.1851L208.835 49.1429C209.505 50.3716 209.865 51.9048 209.865 53.784H211.865ZM210.591 48.1851C209.74 46.6247 208.568 45.3996 207.079 44.5352L206.075 46.2648C207.232 46.9364 208.15 47.8873 208.835 49.1429L210.591 48.1851ZM207.079 44.5352C205.591 43.6709 203.921 43.248 202.097 43.248V45.248C203.601 45.248 204.918 45.5931 206.075 46.2648L207.079 44.5352ZM202.097 43.248C200.273 43.248 198.603 43.6709 197.115 44.5352L198.119 46.2648C199.276 45.5931 200.593 45.248 202.097 45.248V43.248ZM197.115 44.5352C195.631 45.3966 194.443 46.6151 193.55 48.165L195.284 49.163C196.013 47.8969 196.957 46.9394 198.119 46.2648L197.115 44.5352ZM193.539 48.1851C192.673 49.7724 192.265 51.6525 192.265 53.784H194.265C194.265 51.9048 194.625 50.3716 195.295 49.1429L193.539 48.1851ZM192.265 53.784C192.265 55.878 192.675 57.7514 193.533 59.3719L195.301 58.4361C194.623 57.1553 194.265 55.6153 194.265 53.784H192.265ZM193.55 59.403C194.443 60.9529 195.631 62.1714 197.115 63.0328L198.119 61.3032C196.957 60.6286 196.013 59.6711 195.284 58.405L193.55 59.403ZM197.115 63.0328C198.603 63.8971 200.273 64.32 202.097 64.32V62.32C200.593 62.32 199.276 61.9749 198.119 61.3032L197.115 63.0328ZM232.387 69.336L231.889 70.2034L231.9 70.2095L232.387 69.336ZM226.179 63.128L225.308 63.6196L225.314 63.6301L226.179 63.128ZM226.179 44.376L225.314 43.8738L225.308 43.8844L226.179 44.376ZM232.387 38.232L231.9 37.3585L232.387 38.232ZM248.771 37.976L249.278 37.1141L248.771 37.976ZM253.827 43.8L254.735 43.3828L253.827 43.8ZM253.891 63.768L254.805 64.1728L254.807 64.1673L253.891 63.768ZM248.899 69.592L248.392 68.73L248.384 68.7345L248.899 69.592ZM247.299 62.168L246.796 61.3032L247.299 62.168ZM250.435 58.904L249.562 58.4162L249.557 58.4251L250.435 58.904ZM250.435 48.664L249.557 49.1429L249.562 49.153L249.568 49.163L250.435 48.664ZM247.299 45.4L246.796 46.2648L247.299 45.4ZM238.403 45.4L238.905 46.2648L238.403 45.4ZM235.203 48.664L234.336 48.165L234.33 48.175L234.325 48.1851L235.203 48.664ZM235.203 58.904L234.319 59.3719L234.327 59.3876L234.336 59.403L235.203 58.904ZM238.403 62.168L238.905 61.3032L238.403 62.168ZM251.907 71H250.907V72H251.907V71ZM251.907 63.96L250.907 63.9413L250.907 63.9506V63.96H251.907ZM252.099 53.72L253.098 53.7387L253.099 53.698L253.097 53.6572L252.099 53.72ZM251.459 43.544H250.459V43.5754L250.461 43.6068L251.459 43.544ZM251.459 23.512V22.512H250.459V23.512H251.459ZM261.443 23.512H262.443V22.512H261.443V23.512ZM261.443 71V72H262.443V71H261.443ZM241.155 70.512C238.067 70.512 235.314 69.823 232.873 68.4625L231.9 70.2095C234.664 71.7503 237.757 72.512 241.155 72.512V70.512ZM232.884 68.4686C230.437 67.0645 228.493 65.1224 227.043 62.6259L225.314 63.6301C226.936 66.4242 229.131 68.6209 231.889 70.2034L232.884 68.4686ZM227.049 62.6364C225.655 60.166 224.939 57.2269 224.939 53.784H222.939C222.939 57.5091 223.716 60.7993 225.308 63.6196L227.049 62.6364ZM224.939 53.784C224.939 50.2962 225.656 47.3363 227.049 44.8676L225.308 43.8844C223.715 46.7064 222.939 50.0185 222.939 53.784H224.939ZM227.043 44.8781C228.492 42.384 230.432 40.4662 232.873 39.1055L231.9 37.3585C229.136 38.8991 226.938 41.0774 225.314 43.8739L227.043 44.8781ZM232.873 39.1055C235.314 37.745 238.067 37.056 241.155 37.056V35.056C237.757 35.056 234.664 35.8177 231.9 37.3585L232.873 39.1055ZM241.155 37.056C243.905 37.056 246.263 37.6611 248.264 38.8379L249.278 37.1141C246.926 35.7309 244.207 35.056 241.155 35.056V37.056ZM248.264 38.8379C250.24 40.0007 251.797 41.7744 252.918 44.2172L254.735 43.3828C253.467 40.6202 251.653 38.5113 249.278 37.1141L248.264 38.8379ZM252.918 44.2172C254.033 46.6464 254.619 49.819 254.619 53.784H256.619C256.619 49.6423 256.01 46.159 254.735 43.3828L252.918 44.2172ZM254.619 53.784C254.619 57.7073 254.054 60.8883 252.974 63.3687L254.807 64.1673C256.031 61.357 256.619 57.882 256.619 53.784H254.619ZM252.976 63.3633C251.898 65.8001 250.365 67.5694 248.392 68.7301L249.406 70.4539C251.784 69.0546 253.58 66.9413 254.805 64.1727L252.976 63.3633ZM248.384 68.7345C246.437 69.9029 244.042 70.512 241.155 70.512V72.512C244.326 72.512 247.094 71.8411 249.413 70.4495L248.384 68.7345ZM242.883 64.32C244.669 64.32 246.316 63.8947 247.801 63.0328L246.796 61.3032C245.636 61.9773 244.339 62.32 242.883 62.32V64.32ZM247.801 63.0328C249.289 62.1684 250.461 60.9433 251.312 59.3829L249.557 58.4251C248.872 59.6807 247.953 60.6316 246.796 61.3032L247.801 63.0328ZM251.308 59.3918C252.215 57.7671 252.651 55.8864 252.651 53.784H250.651C250.651 55.6069 250.275 57.1395 249.562 58.4162L251.308 59.3918ZM252.651 53.784C252.651 51.6442 252.218 49.7566 251.301 48.165L249.568 49.163C250.273 50.3874 250.651 51.9131 250.651 53.784H252.651ZM251.312 48.1851C250.461 46.6247 249.289 45.3996 247.801 44.5352L246.796 46.2648C247.953 46.9364 248.872 47.8873 249.557 49.1429L251.312 48.1851ZM247.801 44.5352C246.316 43.6733 244.669 43.248 242.883 43.248V45.248C244.339 45.248 245.636 45.5907 246.796 46.2648L247.801 44.5352ZM242.883 43.248C241.058 43.248 239.389 43.6709 237.9 44.5352L238.905 46.2648C240.062 45.5931 241.379 45.248 242.883 45.248V43.248ZM237.9 44.5352C236.417 45.3966 235.228 46.6151 234.336 48.165L236.069 49.163C236.798 47.8969 237.743 46.9394 238.905 46.2648L237.9 44.5352ZM234.325 48.1851C233.459 49.7724 233.051 51.6525 233.051 53.784H235.051C235.051 51.9048 235.41 50.3716 236.08 49.1429L234.325 48.1851ZM233.051 53.784C233.051 55.878 233.461 57.7514 234.319 59.3719L236.086 58.4361C235.408 57.1553 235.051 55.6153 235.051 53.784H233.051ZM234.336 59.403C235.228 60.9529 236.417 62.1714 237.9 63.0328L238.905 61.3032C237.743 60.6286 236.798 59.6711 236.069 58.405L234.336 59.403ZM237.9 63.0328C239.389 63.8971 241.058 64.32 242.883 64.32V62.32C241.379 62.32 240.062 61.9749 238.905 61.3032L237.9 63.0328ZM252.907 71V63.96H250.907V71H252.907ZM252.906 63.9787L253.098 53.7387L251.099 53.7013L250.907 63.9413L252.906 63.9787ZM253.097 53.6572L252.457 43.4812L250.461 43.6068L251.101 53.7828L253.097 53.6572ZM252.459 43.544V23.512H250.459V43.544H252.459ZM251.459 24.512H261.443V22.512H251.459V24.512ZM260.443 23.512V71H262.443V23.512H260.443ZM261.443 70H251.907V72H261.443V70ZM274.203 69.208L273.741 70.0946L273.746 70.0973L274.203 69.208ZM267.355 62.936L266.499 63.4525L266.502 63.4586L267.355 62.936ZM267.291 44.632L266.435 44.1155L266.432 44.1195L267.291 44.632ZM273.883 38.36L274.357 39.2405L274.368 39.2348L273.883 38.36ZM292.379 38.232L291.904 39.112L291.912 39.1165L291.921 39.1208L292.379 38.232ZM298.843 44.376L297.981 44.8824L297.984 44.8885L298.843 44.376ZM301.147 55.256L302.143 55.3465L302.144 55.339L301.147 55.256ZM301.019 56.6V57.6H301.924L302.014 56.6995L301.019 56.6ZM273.051 56.6H272.051V57.6H273.051V56.6ZM273.051 50.776V49.776H272.051V50.776H273.051ZM295.771 50.776L296.181 51.6879L295.771 49.776V50.776ZM291.931 52.504H290.931V54.0506L292.341 53.4159L291.931 52.504ZM290.843 47.832L289.966 48.3128L290.843 47.832ZM287.835 44.76L287.321 45.6175L287.331 45.6239L287.342 45.63L287.835 44.76ZM278.811 44.76L279.304 45.6301L279.313 45.6248L278.811 44.76ZM275.803 47.896L276.68 48.3769L276.686 48.3652L275.803 47.896ZM275.931 59.16L275.058 59.6478L275.067 59.6632L275.076 59.6783L275.931 59.16ZM279.451 62.424L278.994 63.3133L279.009 63.321L279.024 63.3282L279.451 62.424ZM289.627 62.68L289.261 61.7495L289.251 61.7535L289.627 62.68ZM293.467 60.184L294.202 59.5061L293.509 58.7549L292.773 59.4637L293.467 60.184ZM298.779 65.944L299.529 66.605L300.125 65.9287L299.514 65.2661L298.779 65.944ZM292.827 70.104L293.193 71.0348L293.2 71.0319L293.207 71.029L292.827 70.104ZM284.571 70.512C280.778 70.512 277.484 69.7706 274.66 68.3187L273.746 70.0973C276.896 71.7174 280.514 72.512 284.571 72.512V70.512ZM274.666 68.3214C271.871 66.8631 269.728 64.8935 268.208 62.4134L266.502 63.4586C268.225 66.2692 270.648 68.4809 273.741 70.0946L274.666 68.3214ZM268.211 62.4195C266.692 59.9009 265.923 57.0317 265.923 53.784H263.923C263.923 57.3629 264.775 60.5951 266.499 63.4525L268.211 62.4195ZM265.923 53.784C265.923 50.4859 266.674 47.6166 268.15 45.1445L266.432 44.1195C264.75 46.9381 263.923 50.1701 263.923 53.784H265.923ZM268.147 45.1485C269.676 42.6144 271.741 40.6492 274.357 39.2405L273.409 37.4795C270.479 39.0575 268.149 41.2736 266.435 44.1155L268.147 45.1485ZM274.368 39.2348C276.978 37.7892 279.944 37.056 283.291 37.056V35.056C279.641 35.056 276.335 35.8588 273.399 37.4852L274.368 39.2348ZM283.291 37.056C286.513 37.056 289.377 37.748 291.904 39.112L292.854 37.352C290.005 35.8146 286.81 35.056 283.291 35.056V37.056ZM291.921 39.1208C294.481 40.4408 296.496 42.355 297.981 44.8824L299.705 43.8696C298.032 41.021 295.739 38.8392 292.837 37.3432L291.921 39.1208ZM297.984 44.8885C299.453 47.3498 300.211 50.3434 300.211 53.912H302.211C302.211 50.0566 301.39 46.6928 299.702 43.8635L297.984 44.8885ZM300.211 53.912C300.211 54.2608 300.192 54.68 300.151 55.173L302.144 55.339C302.188 54.808 302.211 54.3312 302.211 53.912H300.211ZM300.151 55.1655C300.109 55.6321 300.066 56.0771 300.024 56.5005L302.014 56.6995C302.057 56.2696 302.1 55.8186 302.143 55.3465L300.151 55.1655ZM301.019 55.6H273.051V57.6H301.019V55.6ZM274.051 56.6V50.776H272.051V56.6H274.051ZM273.051 51.776H295.771V49.776H273.051V51.776ZM295.361 49.8641L291.521 51.5921L292.341 53.4159L296.181 51.6879L295.361 49.8641ZM292.931 52.504C292.931 50.5755 292.54 48.8466 291.72 47.3512L289.966 48.3128C290.597 49.4627 290.931 50.8485 290.931 52.504H292.931ZM291.72 47.3512C290.908 45.87 289.774 44.7093 288.328 43.89L287.342 45.63C288.456 46.2614 289.328 47.1487 289.966 48.3128L291.72 47.3512ZM288.35 43.9025C286.893 43.0285 285.217 42.608 283.355 42.608V44.608C284.907 44.608 286.217 44.9555 287.321 45.6175L288.35 43.9025ZM283.355 42.608C281.493 42.608 279.801 43.0287 278.309 43.8952L279.313 45.6248C280.466 44.9553 281.804 44.608 283.355 44.608V42.608ZM278.318 43.89C276.864 44.714 275.73 45.9025 274.92 47.4268L276.686 48.3652C277.327 47.1589 278.198 46.2567 279.304 45.63L278.318 43.89ZM274.926 47.4152C274.104 48.9139 273.715 50.6653 273.715 52.632H275.715C275.715 50.9293 276.051 49.5234 276.68 48.3768L274.926 47.4152ZM273.715 52.632V54.168H275.715V52.632H273.715ZM273.715 54.168C273.715 56.1936 274.154 58.0296 275.058 59.6478L276.804 58.6722C276.087 57.3891 275.715 55.8971 275.715 54.168H273.715ZM275.076 59.6783C276.027 61.2476 277.34 62.4625 278.994 63.3133L279.908 61.5347C278.576 60.8495 277.542 59.8884 276.786 58.6417L275.076 59.6783ZM279.024 63.3282C280.718 64.1283 282.661 64.512 284.827 64.512V62.512C282.897 62.512 281.256 62.1704 279.878 61.5198L279.024 63.3282ZM284.827 64.512C286.76 64.512 288.493 64.22 290.003 63.6065L289.251 61.7535C288.03 62.2493 286.563 62.512 284.827 62.512V64.512ZM289.994 63.6104C291.53 63.0051 292.92 62.0992 294.161 60.9043L292.773 59.4637C291.71 60.4875 290.54 61.2456 289.261 61.7496L289.994 63.6104ZM292.732 60.8619L298.044 66.6219L299.514 65.2661L294.202 59.5061L292.732 60.8619ZM298.029 65.283C296.56 66.9505 294.706 68.2512 292.447 69.179L293.207 71.029C295.727 69.9942 297.841 68.5215 299.529 66.605L298.029 65.283ZM292.461 69.1732C290.211 70.0575 287.587 70.512 284.571 70.512V72.512C287.785 72.512 290.665 72.0278 293.193 71.0348L292.461 69.1732ZM319.698 70.104L319.334 71.0352L319.342 71.0384L319.35 71.0414L319.698 70.104ZM312.018 65.24L311.325 65.9611L312.018 65.24ZM306.898 57.88L305.977 58.2706L305.983 58.2823L306.898 57.88ZM306.898 39.32L305.982 38.9177L305.978 38.9294L306.898 39.32ZM312.018 31.96L311.332 31.2322L311.325 31.2389L312.018 31.96ZM319.762 27.16L320.115 28.0958L320.126 28.0912L319.762 27.16ZM339.922 27.48L339.521 28.3959L339.528 28.3992L339.536 28.4023L339.922 27.48ZM347.858 33.368L348.536 34.1028L349.229 33.4633L348.631 32.7341L347.858 33.368ZM341.202 39.512L340.451 40.1718L341.127 40.9422L341.88 40.2468L341.202 39.512ZM336.082 35.608L335.651 36.5105L335.66 36.5145L335.668 36.5184L336.082 35.608ZM319.634 38.232L320.341 38.9391V38.9391L319.634 38.232ZM316.626 42.776L315.702 42.393L315.698 42.4027L315.695 42.4125L316.626 42.776ZM316.626 54.424L315.695 54.7875L315.698 54.7973L315.702 54.807L316.626 54.424ZM319.634 58.968L318.927 59.6751L319.634 58.968ZM336.082 61.656L336.496 62.5664L336.504 62.5625L336.513 62.5585L336.082 61.656ZM341.202 57.624L341.88 56.8892L341.118 56.1855L340.443 56.9732L341.202 57.624ZM347.858 63.768L348.631 64.4019L349.229 63.6727L348.536 63.0332L347.858 63.768ZM339.922 69.72L339.525 68.8021L339.521 68.8041L339.922 69.72ZM329.362 70.768C326.015 70.768 322.912 70.2311 320.046 69.1666L319.35 71.0414C322.457 72.1955 325.797 72.768 329.362 72.768V70.768ZM320.062 69.1728C317.235 68.0663 314.788 66.5143 312.711 64.5189L311.325 65.9611C313.6 68.147 316.273 69.8377 319.334 71.0352L320.062 69.1728ZM312.711 64.5189C310.631 62.5207 308.999 60.1763 307.814 57.4777L305.983 58.2823C307.272 61.2157 309.053 63.778 311.325 65.9611L312.711 64.5189ZM307.819 57.4894C306.682 54.809 306.106 51.8502 306.106 48.6H304.106C304.106 52.0911 304.725 55.319 305.978 58.2705L307.819 57.4894ZM306.106 48.6C306.106 45.3498 306.682 42.391 307.819 39.7105L305.978 38.9294C304.725 41.881 304.106 45.1089 304.106 48.6H306.106ZM307.814 39.7223C308.999 37.0237 310.631 34.6793 312.711 32.6811L311.325 31.2389C309.053 33.422 307.272 35.9843 305.983 38.9177L307.814 39.7223ZM312.704 32.6878C314.823 30.6907 317.29 29.16 320.115 28.0958L319.409 26.2242C316.346 27.3787 313.65 29.048 311.332 31.2322L312.704 32.6878ZM320.126 28.0912C322.943 26.9893 326.039 26.432 329.426 26.432V24.432C325.816 24.432 322.47 25.0267 319.398 26.2288L320.126 28.0912ZM329.426 26.432C333.19 26.432 336.549 27.0934 339.521 28.3959L340.324 26.5641C337.066 25.136 333.427 24.432 329.426 24.432V26.432ZM339.536 28.4023C342.545 29.663 345.057 31.5278 347.085 34.0019L348.631 32.7341C346.393 30.0029 343.614 27.9423 340.308 26.5577L339.536 28.4023ZM347.18 32.6332L340.524 38.7772L341.88 40.2468L348.536 34.1028L347.18 32.6332ZM341.954 38.8522C340.336 37.0101 338.518 35.6167 336.496 34.6976L335.668 36.5184C337.401 37.3059 338.996 38.5152 340.451 40.1718L341.954 38.8522ZM336.513 34.7055C334.492 33.7411 332.296 33.264 329.938 33.264V35.264C332.018 35.264 333.917 35.6829 335.651 36.5105L336.513 34.7055ZM329.938 33.264C327.737 33.264 325.692 33.6237 323.815 34.3564L324.542 36.2196C326.163 35.587 327.958 35.264 329.938 35.264V33.264ZM323.815 34.3564C321.941 35.0874 320.308 36.1434 318.927 37.5249L320.341 38.9391C321.52 37.7605 322.916 36.8539 324.542 36.2196L323.815 34.3564ZM318.927 37.5249C317.55 38.9019 316.476 40.5281 315.702 42.393L317.55 43.159C318.227 41.5252 319.158 40.1221 320.341 38.9391L318.927 37.5249ZM315.695 42.4125C314.961 44.2923 314.602 46.3591 314.602 48.6H316.602C316.602 46.5743 316.926 44.7583 317.558 43.1395L315.695 42.4125ZM314.602 48.6C314.602 50.8409 314.961 52.9077 315.695 54.7875L317.558 54.0605C316.926 52.4417 316.602 50.6257 316.602 48.6H314.602ZM315.702 54.807C316.476 56.6719 317.55 58.2981 318.927 59.6751L320.341 58.2609C319.158 57.0779 318.227 55.6748 317.55 54.041L315.702 54.807ZM318.927 59.6751C320.308 61.0565 321.941 62.1126 323.815 62.8436L324.542 60.9804C322.916 60.3461 321.52 59.4395 320.341 58.2609L318.927 59.6751ZM323.815 62.8436C325.692 63.5763 327.737 63.936 329.938 63.936V61.936C327.958 61.936 326.163 61.613 324.542 60.9804L323.815 62.8436ZM329.938 63.936C332.289 63.936 334.479 63.4832 336.496 62.5664L335.668 60.7456C333.931 61.5355 332.025 61.936 329.938 61.936V63.936ZM336.513 62.5585C338.532 61.5948 340.347 60.1584 341.961 58.2748L340.443 56.9732C338.985 58.6736 337.387 59.9252 335.651 60.7535L336.513 62.5585ZM340.524 58.3588L347.18 64.5028L348.536 63.0332L341.88 56.8892L340.524 58.3588ZM347.085 63.1341C345.055 65.6106 342.54 67.4986 339.525 68.8021L340.319 70.6379C343.619 69.2107 346.395 67.1307 348.631 64.4019L347.085 63.1341ZM339.521 68.8041C336.551 70.1061 333.17 70.768 329.362 70.768V72.768C333.404 72.768 337.064 72.0646 340.324 70.6359L339.521 68.8041ZM352.876 71H351.876V72H352.876V71ZM352.876 36.568V35.568H351.876V36.568H352.876ZM362.412 36.568H363.412V35.568H362.412V36.568ZM362.412 46.296L361.509 46.7267L363.412 46.296H362.412ZM361.068 43.48L360.146 43.0919L359.972 43.5056L360.165 43.9107L361.068 43.48ZM365.996 37.976L366.476 38.8533L366.482 38.8498L366.488 38.8463L365.996 37.976ZM374.252 36.056H375.252V35.056H374.252V36.056ZM374.252 45.272L374.152 46.267L375.252 46.377V45.272H374.252ZM373.1 45.208L372.976 46.2003L373.037 46.208H373.1V45.208ZM365.356 47.512L366.034 48.2468L366.035 48.2461L365.356 47.512ZM362.86 71V72H363.86V71H362.86ZM353.876 71V36.568H351.876V71H353.876ZM352.876 37.568H362.412V35.568H352.876V37.568ZM361.412 36.568V46.296H363.412V36.568H361.412ZM363.314 45.8653L361.97 43.0493L360.165 43.9107L361.509 46.7267L363.314 45.8653ZM361.989 43.8681C362.928 41.639 364.418 39.9794 366.476 38.8533L365.516 37.0987C363.051 38.4473 361.255 40.457 360.146 43.0919L361.989 43.8681ZM366.488 38.8463C368.566 37.6699 371.139 37.056 374.252 37.056V35.056C370.879 35.056 367.947 35.7221 365.503 37.1057L366.488 38.8463ZM373.252 36.056V45.272H375.252V36.056H373.252ZM374.351 44.277C373.899 44.2318 373.481 44.208 373.1 44.208V46.208C373.401 46.208 373.751 46.2269 374.152 46.267L374.351 44.277ZM373.224 44.2157C372.837 44.1674 372.432 44.144 372.012 44.144V46.144C372.359 46.144 372.68 46.1633 372.976 46.2003L373.224 44.2157ZM372.012 44.144C369.076 44.144 366.6 44.999 364.677 46.7779L366.035 48.2461C367.525 46.8677 369.486 46.144 372.012 46.144V44.144ZM364.677 46.7772C362.73 48.5745 361.86 51.3071 361.86 54.744H363.86C363.86 51.6102 364.653 49.5215 366.034 48.2468L364.677 46.7772ZM361.86 54.744V71H363.86V54.744H361.86ZM362.86 70H352.876V72H362.86V70ZM386.006 69.848L385.559 70.7425L385.566 70.7458L386.006 69.848ZM380.822 64.792L379.941 65.2651L379.945 65.272L380.822 64.792ZM378.966 36.568V35.568H377.966V36.568H378.966ZM388.95 36.568H389.95V35.568H388.95V36.568ZM390.742 60.888L389.99 61.5465L390 61.559L390.012 61.5712L390.742 60.888ZM400.022 61.912L400.494 62.7935L400.506 62.787L400.518 62.7802L400.022 61.912ZM402.838 58.84L403.733 59.2872L403.738 59.2763L402.838 58.84ZM403.862 36.568V35.568H402.862V36.568H403.862ZM413.846 36.568H414.846V35.568H413.846V36.568ZM413.846 71V72H414.846V71H413.846ZM404.374 71H403.374V72H404.374V71ZM404.374 61.528L405.221 60.9962L403.374 58.0549V61.528H404.374ZM406.102 64.28L407.003 64.7143L407.243 64.2164L406.949 63.7482L406.102 64.28ZM400.982 69.72L401.456 70.6005L401.462 70.5973L400.982 69.72ZM393.686 70.512C390.959 70.512 388.553 69.9837 386.447 68.9502L385.566 70.7458C387.982 71.9309 390.695 72.512 393.686 72.512V70.512ZM386.453 68.9536C384.424 67.9391 382.843 66.402 381.699 64.312L379.945 65.272C381.276 67.7046 383.151 69.5383 385.559 70.7424L386.453 68.9536ZM381.703 64.3189C380.567 62.2027 379.966 59.4561 379.966 56.024H377.966C377.966 59.6746 378.603 62.7733 379.941 65.2651L381.703 64.3189ZM379.966 56.024V36.568H377.966V56.024H379.966ZM378.966 37.568H388.95V35.568H378.966V37.568ZM387.95 36.568V54.552H389.95V36.568H387.95ZM387.95 54.552C387.95 57.5204 388.566 59.9192 389.99 61.5465L391.495 60.2295C390.529 59.1262 389.95 57.3009 389.95 54.552H387.95ZM390.012 61.5712C391.48 63.1401 393.498 63.872 395.926 63.872V61.872C393.917 61.872 392.479 61.2812 391.472 60.2048L390.012 61.5712ZM395.926 63.872C397.605 63.872 399.136 63.5211 400.494 62.7935L399.55 61.0305C398.519 61.5829 397.32 61.872 395.926 61.872V63.872ZM400.518 62.7802C401.903 61.9891 402.972 60.8091 403.733 59.2872L401.944 58.3928C401.339 59.6016 400.531 60.4696 399.526 61.0438L400.518 62.7802ZM403.738 59.2763C404.505 57.6946 404.862 55.7854 404.862 53.592H402.862C402.862 55.58 402.537 57.1694 401.938 58.4037L403.738 59.2763ZM404.862 53.592V36.568H402.862V53.592H404.862ZM403.862 37.568H413.846V35.568H403.862V37.568ZM412.846 36.568V71H414.846V36.568H412.846ZM413.846 70H404.374V72H413.846V70ZM405.374 71V61.528H403.374V71H405.374ZM403.527 62.0598L405.255 64.8118L406.949 63.7482L405.221 60.9962L403.527 62.0598ZM405.201 63.8457C404.137 66.0529 402.575 67.7086 400.502 68.8427L401.462 70.5973C403.912 69.2567 405.763 67.2857 407.003 64.7143L405.201 63.8457ZM400.508 68.8395C398.442 69.9518 396.174 70.512 393.686 70.512V72.512C396.488 72.512 399.084 71.8775 401.456 70.6005L400.508 68.8395ZM424.888 70.488L424.627 71.4535L424.636 71.4559L424.645 71.4581L424.888 70.488ZM418.488 67.8L417.581 67.3789L417.222 68.1516L417.928 68.6286L418.488 67.8ZM421.816 60.632L422.344 59.7827L421.384 59.1864L420.909 60.2109L421.816 60.632ZM427.384 63.064L427.096 64.0218L427.108 64.0252L427.119 64.0283L427.384 63.064ZM438.648 63.128L438.156 62.2574L438.147 62.2622L438.139 62.2671L438.648 63.128ZM438.968 59.032L438.461 59.8939L438.49 59.9112L438.52 59.9264L438.968 59.032ZM436.024 58.072L435.854 59.0575L436.024 58.072ZM431.928 57.432L431.782 58.4214L431.786 58.4219L431.928 57.432ZM427.512 56.6L427.263 57.5685L427.276 57.5719L427.289 57.5749L427.512 56.6ZM423.416 54.936L423.921 54.0733L423.416 54.936ZM420.408 51.992L419.545 52.4977L419.551 52.5086L419.558 52.5194L420.408 51.992ZM421.176 41.432L420.383 40.8223L420.378 40.8288L420.373 40.8353L421.176 41.432ZM426.68 37.528L427.045 38.4588L427.052 38.4559L427.06 38.453L426.68 37.528ZM442.424 36.824L442.63 35.8454H442.63L442.424 36.824ZM448.504 39.064L449.409 39.4882L449.791 38.674L449.021 38.2085L448.504 39.064ZM445.176 46.168L444.668 47.0294L445.615 47.5879L446.081 46.5922L445.176 46.168ZM440.12 44.184L439.895 45.1584L439.909 45.1617L439.923 45.1646L440.12 44.184ZM430.392 44.504L429.888 43.6402L430.392 44.504ZM429.944 48.728L429.437 49.5899L429.447 49.5962L429.458 49.6022L429.944 48.728ZM436.984 50.456L436.838 51.4454L436.854 51.4477L436.87 51.4495L436.984 50.456ZM441.464 51.288L441.713 50.3195L441.464 51.288ZM445.496 52.952L444.977 53.8068L444.994 53.8176L445.013 53.8276L445.496 52.952ZM448.504 55.832L447.654 56.3594L447.658 56.3661L447.662 56.3728L448.504 55.832ZM447.736 66.264L448.521 66.8837L448.528 66.8737L447.736 66.264ZM442.168 70.104L441.807 69.1711L441.802 69.1732L442.168 70.104ZM433.4 70.512C430.534 70.512 427.778 70.1798 425.13 69.5179L424.645 71.4581C427.459 72.1615 430.378 72.512 433.4 72.512V70.512ZM425.148 69.5225C422.522 68.8139 420.503 67.9548 419.047 66.9714L417.928 68.6286C419.63 69.7785 421.877 70.7114 424.627 71.4535L425.148 69.5225ZM419.395 68.2211L422.723 61.0531L420.909 60.2109L417.581 67.3789L419.395 68.2211ZM421.288 61.4813C422.954 62.5174 424.894 63.3613 427.096 64.0218L427.671 62.1062C425.606 61.4867 423.834 60.7093 422.344 59.7827L421.288 61.4813ZM427.119 64.0283C429.374 64.6475 431.597 64.96 433.784 64.96V62.96C431.789 62.96 429.745 62.6752 427.648 62.0997L427.119 64.0283ZM433.784 64.96C436.108 64.96 437.968 64.6908 439.156 63.9889L438.139 62.2671C437.449 62.6745 436.067 62.96 433.784 62.96V64.96ZM439.14 63.9986C440.379 63.2982 441.12 62.226 441.12 60.824H439.12C439.12 61.3847 438.879 61.8485 438.156 62.2574L439.14 63.9986ZM441.12 60.824C441.12 60.2548 440.983 59.7092 440.673 59.2272C440.365 58.7486 439.926 58.3931 439.415 58.1376L438.52 59.9264C438.777 60.0549 438.914 60.19 438.99 60.3088C439.065 60.4242 439.12 60.5825 439.12 60.824H441.12ZM439.475 58.1701C438.607 57.6599 437.497 57.3113 436.193 57.0865L435.854 59.0575C437.025 59.2594 437.877 59.5507 438.461 59.8939L439.475 58.1701ZM436.193 57.0865C434.945 56.8713 433.57 56.6565 432.069 56.4421L431.786 58.4219C433.272 58.6342 434.627 58.846 435.854 59.0575L436.193 57.0865ZM432.073 56.4426C430.649 56.2333 429.203 55.9609 427.734 55.6251L427.289 57.5749C428.807 57.9218 430.304 58.204 431.782 58.4214L432.073 56.4426ZM427.761 55.6315C426.351 55.2689 425.073 54.7482 423.921 54.0733L422.91 55.7987C424.233 56.5744 425.686 57.1631 427.263 57.5685L427.761 55.6315ZM423.921 54.0733C422.826 53.4314 421.941 52.5661 421.257 51.4646L419.558 52.5194C420.41 53.8925 421.53 54.9899 422.91 55.7987L423.921 54.0733ZM421.27 51.4863C420.662 50.4487 420.32 49.0397 420.32 47.192H418.32C418.32 49.2696 418.702 51.0606 419.545 52.4977L421.27 51.4863ZM420.32 47.192C420.32 45.2196 420.876 43.5113 421.978 42.0287L420.373 40.8353C419.001 42.6807 418.32 44.8124 418.32 47.192H420.32ZM421.968 42.0417C423.115 40.5504 424.787 39.3459 427.045 38.4588L426.314 36.5972C423.793 37.5875 421.796 38.9856 420.383 40.8223L421.968 42.0417ZM427.06 38.453C429.299 37.5332 432.022 37.056 435.256 37.056V35.056C431.833 35.056 428.839 35.5601 426.3 36.603L427.06 38.453ZM435.256 37.056C437.529 37.056 439.849 37.304 442.218 37.8025L442.63 35.8454C440.134 35.32 437.675 35.056 435.256 35.056V37.056ZM442.218 37.8025C444.572 38.2982 446.485 39.0114 447.986 39.9195L449.021 38.2085C447.279 37.1539 445.139 36.3738 442.63 35.8454L442.218 37.8025ZM447.598 38.6398L444.27 45.7438L446.081 46.5922L449.409 39.4882L447.598 38.6398ZM445.684 45.3066C443.934 44.2746 442.144 43.569 440.316 43.2034L439.923 45.1646C441.509 45.4817 443.09 46.0987 444.668 47.0294L445.684 45.3066ZM440.344 43.2096C438.613 42.81 436.916 42.608 435.256 42.608V44.608C436.753 44.608 438.298 44.79 439.895 45.1584L440.344 43.2096ZM435.256 42.608C432.99 42.608 431.147 42.9054 429.888 43.6402L430.895 45.3678C431.684 44.9079 433.084 44.608 435.256 44.608V42.608ZM429.888 43.6402C428.65 44.3622 427.856 45.4172 427.856 46.808H429.856C429.856 46.3214 430.085 45.8405 430.895 45.3678L429.888 43.6402ZM427.856 46.808C427.856 48.0096 428.401 48.9805 429.437 49.5899L430.451 47.8661C430.036 47.6222 429.856 47.3131 429.856 46.808H427.856ZM429.458 49.6022C430.344 50.0943 431.452 50.4629 432.749 50.7313L433.154 48.7727C431.976 48.5291 431.079 48.215 430.429 47.8538L429.458 49.6022ZM432.749 50.7313C434.008 50.9917 435.371 51.2296 436.838 51.4454L437.129 49.4666C435.695 49.2557 434.37 49.0243 433.154 48.7727L432.749 50.7313ZM436.87 51.4495C438.317 51.6148 439.765 51.8836 441.215 52.2565L441.713 50.3195C440.176 49.9244 438.637 49.6385 437.097 49.4625L436.87 51.4495ZM441.215 52.2565C442.623 52.6185 443.874 53.1374 444.977 53.8068L446.015 52.0972C444.728 51.316 443.291 50.7255 441.713 50.3195L441.215 52.2565ZM445.013 53.8276C446.095 54.4249 446.973 55.2629 447.654 56.3594L449.353 55.3046C448.498 53.9264 447.371 52.8444 445.979 52.0764L445.013 53.8276ZM447.662 56.3728C448.294 57.3555 448.656 58.7265 448.656 60.568H450.656C450.656 58.4842 450.249 56.6978 449.345 55.2912L447.662 56.3728ZM448.656 60.568C448.656 62.4846 448.086 64.1681 446.943 65.6543L448.528 66.8737C449.945 65.0319 450.656 62.918 450.656 60.568H448.656ZM446.951 65.6444C445.807 67.0927 444.116 68.2802 441.807 69.1711L442.528 71.0369C445.084 70.0504 447.104 68.6779 448.52 66.8836L446.951 65.6444ZM441.802 69.1732C439.562 70.0533 436.771 70.512 433.4 70.512V72.512C436.94 72.512 439.995 72.032 442.533 71.0348L441.802 69.1732ZM482.12 37.72L481.658 38.6072L481.669 38.6127L481.679 38.6179L482.12 37.72ZM487.24 42.712L486.362 43.192L486.366 43.1991L487.24 42.712ZM489.096 71V72H490.096V71H489.096ZM479.112 71H478.112V72H479.112V71ZM477.256 46.68L476.513 47.3503L476.519 47.3568L476.525 47.3632L477.256 46.68ZM467.848 45.72L468.307 46.6083L468.318 46.6024L467.848 45.72ZM464.904 48.728L464.02 48.2588L464.015 48.2697L464.009 48.2808L464.904 48.728ZM463.88 71V72H464.88V71H463.88ZM453.896 71H452.896V72H453.896V71ZM453.896 23.512V22.512H452.896V23.512H453.896ZM463.88 23.512H464.88V22.512H463.88V23.512ZM463.88 46.104L463.09 46.7179L464.88 49.0185V46.104H463.88ZM461.64 43.224L460.759 42.7509L460.451 43.3242L460.85 43.8379L461.64 43.224ZM466.952 37.912L467.425 38.793L466.952 37.912ZM474.824 37.056C477.416 37.056 479.686 37.5815 481.658 38.6072L482.581 36.8328C480.287 35.6398 477.693 35.056 474.824 35.056V37.056ZM481.679 38.6179C483.658 39.5878 485.217 41.0996 486.362 43.192L488.117 42.232C486.787 39.8018 484.933 37.9855 482.56 36.8221L481.679 38.6179ZM486.366 43.1991C487.495 45.2232 488.096 47.8985 488.096 51.288H490.096C490.096 47.6801 489.459 44.6382 488.113 42.2249L486.366 43.1991ZM488.096 51.288V71H490.096V51.288H488.096ZM489.096 70H479.112V72H489.096V70ZM480.112 71V52.824H478.112V71H480.112ZM480.112 52.824C480.112 49.9278 479.469 47.5822 477.986 45.9968L476.525 47.3632C477.517 48.4232 478.112 50.1736 478.112 52.824H480.112ZM477.998 46.0097C476.569 44.4276 474.563 43.696 472.136 43.696V45.696C474.146 45.696 475.553 46.2871 476.513 47.3503L477.998 46.0097ZM472.136 43.696C470.408 43.696 468.814 44.071 467.377 44.8376L468.318 46.6024C469.441 46.0036 470.706 45.696 472.136 45.696V43.696ZM467.388 44.8318C465.951 45.5753 464.83 46.7346 464.02 48.2588L465.787 49.1972C466.428 47.9908 467.27 47.1447 468.307 46.6082L467.388 44.8318ZM464.009 48.2808C463.235 49.8289 462.88 51.7454 462.88 53.976H464.88C464.88 51.9399 465.207 50.3577 465.798 49.1752L464.009 48.2808ZM462.88 53.976V71H464.88V53.976H462.88ZM463.88 70H453.896V72H463.88V70ZM454.896 71V23.512H452.896V71H454.896ZM453.896 24.512H463.88V22.512H453.896V24.512ZM462.88 23.512V46.104H464.88V23.512H462.88ZM464.669 45.4901L462.429 42.6101L460.85 43.8379L463.09 46.7179L464.669 45.4901ZM462.521 43.6971C463.665 41.5662 465.294 39.9374 467.425 38.793L466.478 37.031C464.001 38.3613 462.089 40.2738 460.759 42.7509L462.521 43.6971ZM467.425 38.793C469.566 37.6432 472.024 37.056 474.824 37.056V35.056C471.736 35.056 468.945 35.7062 466.478 37.031L467.425 38.793Z" fill="#2A3034" mask="url(#path-7-outside-1_853_7)"/>
</svg>
